<svg width="219" height="57" viewBox="0 0 219 57" fill="none" xmlns="http://www.w3.org/2000/svg">
<path d="M62.9913 26.0719H70.9913V30.9999H57.8713V8.59988H62.9913V26.0719ZM82.653 31.4479C76.221 31.4479 71.005 26.3919 71.005 19.7999C71.005 13.2079 76.221 8.15188 82.653 8.15188C89.085 8.15188 94.301 13.2079 94.301 19.7999C94.301 26.3919 89.085 31.4479 82.653 31.4479ZM82.653 26.4559C86.301 26.4559 89.181 23.7999 89.181 19.7999C89.181 15.7999 86.301 13.1439 82.653 13.1439C79.005 13.1439 76.125 15.7999 76.125 19.7999C76.125 23.7999 79.005 26.4559 82.653 26.4559ZM105.508 31.4479C100.58 31.4479 96.8675 28.5679 96.8675 23.7679V8.59988H101.988V23.3199C101.988 25.0159 102.788 26.4559 105.508 26.4559C108.228 26.4559 109.028 25.0159 109.028 23.3199V8.59988H114.148V23.7679C114.148 28.5679 110.436 31.4479 105.508 31.4479ZM126.8 8.59988C132.976 8.59988 137.68 13.4639 137.68 19.7999C137.68 26.1359 132.976 30.9999 126.8 30.9999H117.84V8.59988H126.8ZM126.8 26.0719C130.32 26.0719 132.752 23.6399 132.752 19.7999C132.752 15.9599 130.32 13.5279 126.8 13.5279H122.96V26.0719H126.8Z" fill="#197560"/>
<path d="M67.374 39.6V40.7H62.534V55H61.346V40.7H56.506V39.6H67.374ZM70.9609 53.9H78.6609V55H69.7949V39.6H78.5509V40.7H70.9609V46.684H78.0009V47.784H70.9609V53.9ZM88.5459 55.242C83.8599 55.242 80.5379 51.7 80.5379 47.3C80.5379 42.9 83.8599 39.358 88.5459 39.358C91.3839 39.358 93.8699 40.81 95.1459 43.054L94.1119 43.648C93.0999 41.756 90.9659 40.48 88.5459 40.48C84.4979 40.48 81.7039 43.516 81.7039 47.3C81.7039 51.084 84.4979 54.12 88.5459 54.12C90.9879 54.12 93.1439 52.822 94.1559 50.886L95.1899 51.48C93.9359 53.746 91.4279 55.242 88.5459 55.242ZM108.059 39.6H109.225V55H108.059V47.63H99.1054V55H97.9394V39.6H99.1054V46.53H108.059V39.6ZM123.163 39.6H124.329V55H123.295L114.209 41.756V55H113.043V39.6H114.055L123.163 52.844V39.6ZM135.208 55.242C130.764 55.242 127.266 51.7 127.266 47.3C127.266 42.9 130.764 39.358 135.208 39.358C139.652 39.358 143.15 42.9 143.15 47.3C143.15 51.7 139.652 55.242 135.208 55.242ZM135.208 54.12C139.014 54.12 141.984 51.084 141.984 47.3C141.984 43.516 139.014 40.48 135.208 40.48C131.402 40.48 128.432 43.516 128.432 47.3C128.432 51.084 131.402 54.12 135.208 54.12ZM147.273 53.9H154.533V55H146.107V39.6H147.273V53.9ZM162.923 55.242C158.479 55.242 154.981 51.7 154.981 47.3C154.981 42.9 158.479 39.358 162.923 39.358C167.367 39.358 170.865 42.9 170.865 47.3C170.865 51.7 167.367 55.242 162.923 55.242ZM162.923 54.12C166.729 54.12 169.699 51.084 169.699 47.3C169.699 43.516 166.729 40.48 162.923 40.48C159.117 40.48 156.147 43.516 156.147 47.3C156.147 51.084 159.117 54.12 162.923 54.12ZM188.474 47.828V48.422C188.474 52.14 185.636 55.242 181.038 55.242C176.264 55.242 172.942 51.7 172.942 47.3C172.942 42.9 176.264 39.358 180.95 39.358C183.81 39.358 186.296 40.854 187.572 43.076L186.538 43.692C185.526 41.756 183.37 40.48 180.95 40.48C176.902 40.48 174.108 43.516 174.108 47.3C174.108 51.084 176.902 54.12 181.038 54.12C184.778 54.12 187.044 51.81 187.286 48.928H180.752V47.828H188.474ZM191.396 39.6H192.562V55H191.396V39.6ZM197.547 53.9H205.247V55H196.381V39.6H205.137V40.7H197.547V46.684H204.587V47.784H197.547V53.9ZM212.819 55.242C209.937 55.242 207.891 53.79 207.187 51.612L208.199 51.018C208.727 52.866 210.289 54.12 212.819 54.12C215.393 54.12 216.691 52.8 216.691 51.04C216.691 49.192 215.063 48.488 212.709 47.74C210.135 46.904 207.825 46.178 207.825 43.494C207.825 40.964 209.871 39.358 212.489 39.358C215.019 39.358 216.691 40.81 217.439 42.592L216.449 43.142C215.877 41.756 214.689 40.48 212.489 40.48C210.355 40.48 209.013 41.734 209.013 43.45C209.013 45.298 210.575 45.87 212.775 46.596C215.503 47.498 217.879 48.356 217.879 51.018C217.879 53.57 215.877 55.242 212.819 55.242Z" fill="#197560"/>
<g clip-path="url(#clip0_648_30)">
<path fill-rule="evenodd" clip-rule="evenodd" d="M24.4721 39.0175L0 57H18.1615L24.4721 39.0175Z" fill="#F89E37"/>
<path fill-rule="evenodd" clip-rule="evenodd" d="M42.5737 49.8921L38.8853 57H57.0002L42.5737 49.8921Z" fill="#0072CF"/>
<path fill-rule="evenodd" clip-rule="evenodd" d="M46.7846 41.7751L42.5735 49.8921L56.9999 56.9999L46.7846 41.7751Z" fill="#00ADF8"/>
<path fill-rule="evenodd" clip-rule="evenodd" d="M38.8853 30.0002V48.0736L42.5737 49.8922L46.7848 41.7753L38.8853 30.0002Z" fill="#009DE6"/>
<path fill-rule="evenodd" clip-rule="evenodd" d="M38.8853 48.0734V56.9999L42.5737 49.892L38.8853 48.0734Z" fill="#174AA7"/>
<path fill-rule="evenodd" clip-rule="evenodd" d="M29.7255 43.5612L38.7664 57.0001H38.8851V48.0735L29.7255 43.5612Z" fill="#1A3687"/>
<path fill-rule="evenodd" clip-rule="evenodd" d="M38.8851 30.0002L29.7255 43.5612L38.8851 48.0736V30.0002Z" fill="#0082D9"/>
<path fill-rule="evenodd" clip-rule="evenodd" d="M24.472 39.0175L18.1614 57L23.1279 49.6168L35.8318 30.6729L24.472 39.0175Z" fill="#F36D3C"/>
<path fill-rule="evenodd" clip-rule="evenodd" d="M28.1457 28.558L24.4723 39.0175L35.832 30.6728L37.5802 28.061L56.4069 0L28.1457 28.558Z" fill="#EF343A"/>
<path fill-rule="evenodd" clip-rule="evenodd" d="M28.1456 28.558L0 56.9999L24.4721 39.0174L28.1456 28.558Z" fill="#F36D3C"/>
<path fill-rule="evenodd" clip-rule="evenodd" d="M38.1732 0L0 57L28.1456 28.558L38.1732 0Z" fill="#EF343A"/>
<path fill-rule="evenodd" clip-rule="evenodd" d="M38.1734 0L28.1458 28.558L56.407 0H38.1734Z" fill="#D52D33"/>
<path fill-rule="evenodd" clip-rule="evenodd" d="M18.4093 12.8302L18.0504 26.1307L27.1875 12.604L18.4093 12.8302Z" fill="#8EC853"/>
<path fill-rule="evenodd" clip-rule="evenodd" d="M18.5234 8.51135L18.4093 12.8303L27.1874 12.604L18.5234 8.51135Z" fill="#3CC050"/>
<path fill-rule="evenodd" clip-rule="evenodd" d="M18.7547 0L18.5234 8.5113L27.1874 12.604L18.7547 0Z" fill="#00BB5A"/>
<path fill-rule="evenodd" clip-rule="evenodd" d="M18.7545 0H0.517944L18.5232 8.5113L18.7545 0Z" fill="#00A64D"/>
<path fill-rule="evenodd" clip-rule="evenodd" d="M0.517944 0L9.28556 13.0654L18.4091 12.8302L18.5232 8.5113L0.517944 0Z" fill="#AED448"/>
<path fill-rule="evenodd" clip-rule="evenodd" d="M9.28589 13.0653L18.0505 26.1307L18.4094 12.8302L9.28589 13.0653Z" fill="#D9E137"/>
</g>
<defs>
<clipPath id="clip0_648_30">
<rect width="57" height="57" fill="white"/>
</clipPath>
</defs>
</svg>
