<svg width="57" height="57" viewBox="0 0 57 57" fill="none" xmlns="http://www.w3.org/2000/svg">
<g clip-path="url(#clip0_6_586)">
<path fill-rule="evenodd" clip-rule="evenodd" d="M24.4721 39.0175L0 57H18.1615L24.4721 39.0175Z" fill="#F89E37"/>
<path fill-rule="evenodd" clip-rule="evenodd" d="M42.5736 49.8921L38.8851 57H57.0001L42.5736 49.8921Z" fill="#0072CF"/>
<path fill-rule="evenodd" clip-rule="evenodd" d="M46.7846 41.7751L42.5735 49.8921L57 56.9999L46.7846 41.7751Z" fill="#00ADF8"/>
<path fill-rule="evenodd" clip-rule="evenodd" d="M38.8851 30.0002V48.0736L42.5736 49.8922L46.7847 41.7753L38.8851 30.0002Z" fill="#009DE6"/>
<path fill-rule="evenodd" clip-rule="evenodd" d="M38.8851 48.0734V56.9999L42.5736 49.892L38.8851 48.0734Z" fill="#174AA7"/>
<path fill-rule="evenodd" clip-rule="evenodd" d="M29.7255 43.5612L38.7665 57.0001H38.8851V48.0735L29.7255 43.5612Z" fill="#1A3687"/>
<path fill-rule="evenodd" clip-rule="evenodd" d="M38.8851 30.0002L29.7255 43.5612L38.8851 48.0736V30.0002Z" fill="#0082D9"/>
<path fill-rule="evenodd" clip-rule="evenodd" d="M24.4721 39.0175L18.1614 57L23.128 49.6168L35.8318 30.6729L24.4721 39.0175Z" fill="#F36D3C"/>
<path fill-rule="evenodd" clip-rule="evenodd" d="M28.1456 28.558L24.4721 39.0175L35.8319 30.6728L37.58 28.061L56.4068 0L28.1456 28.558Z" fill="#EF343A"/>
<path fill-rule="evenodd" clip-rule="evenodd" d="M28.1456 28.558L0 56.9999L24.4721 39.0174L28.1456 28.558Z" fill="#F36D3C"/>
<path fill-rule="evenodd" clip-rule="evenodd" d="M38.1732 0L0 57L28.1456 28.558L38.1732 0Z" fill="#EF343A"/>
<path fill-rule="evenodd" clip-rule="evenodd" d="M38.1733 0L28.1456 28.558L56.4068 0H38.1733Z" fill="#D52D33"/>
<path fill-rule="evenodd" clip-rule="evenodd" d="M18.4093 12.8302L18.0504 26.1307L27.1874 12.604L18.4093 12.8302Z" fill="#8EC853"/>
<path fill-rule="evenodd" clip-rule="evenodd" d="M18.5234 8.51135L18.4093 12.8303L27.1874 12.604L18.5234 8.51135Z" fill="#3CC050"/>
<path fill-rule="evenodd" clip-rule="evenodd" d="M18.7547 0L18.5234 8.5113L27.1874 12.604L18.7547 0Z" fill="#00BB5A"/>
<path fill-rule="evenodd" clip-rule="evenodd" d="M18.7547 0H0.518127L18.5234 8.5113L18.7547 0Z" fill="#00A64D"/>
<path fill-rule="evenodd" clip-rule="evenodd" d="M0.518127 0L9.28574 13.0654L18.4093 12.8302L18.5234 8.5113L0.518127 0Z" fill="#AED448"/>
<path fill-rule="evenodd" clip-rule="evenodd" d="M9.28571 13.0653L18.0503 26.1307L18.4092 12.8302L9.28571 13.0653Z" fill="#D9E137"/>
</g>
<defs>
<clipPath id="clip0_6_586">
<rect width="57" height="57" fill="white"/>
</clipPath>
</defs>
</svg>
