<svg width="219" height="58" viewBox="0 0 219 58" fill="none" xmlns="http://www.w3.org/2000/svg">
<path d="M62.9913 25.1428H70.9913V30.0708H57.8713V7.6708H62.9913V25.1428ZM82.653 30.5188C76.221 30.5188 71.005 25.4628 71.005 18.8708C71.005 12.2788 76.221 7.2228 82.653 7.2228C89.085 7.2228 94.301 12.2788 94.301 18.8708C94.301 25.4628 89.085 30.5188 82.653 30.5188ZM82.653 25.5268C86.301 25.5268 89.181 22.8708 89.181 18.8708C89.181 14.8708 86.301 12.2148 82.653 12.2148C79.005 12.2148 76.125 14.8708 76.125 18.8708C76.125 22.8708 79.005 25.5268 82.653 25.5268ZM105.508 30.5188C100.58 30.5188 96.8675 27.6388 96.8675 22.8388V7.6708H101.988V22.3908C101.988 24.0868 102.788 25.5268 105.508 25.5268C108.228 25.5268 109.028 24.0868 109.028 22.3908V7.6708H114.148V22.8388C114.148 27.6388 110.436 30.5188 105.508 30.5188ZM126.8 7.6708C132.976 7.6708 137.68 12.5348 137.68 18.8708C137.68 25.2068 132.976 30.0708 126.8 30.0708H117.84V7.6708H126.8ZM126.8 25.1428C130.32 25.1428 132.752 22.7108 132.752 18.8708C132.752 15.0308 130.32 12.5988 126.8 12.5988H122.96V25.1428H126.8Z" fill="white"/>
<path d="M67.374 39.6708V40.7708H62.534V55.0708H61.346V40.7708H56.506V39.6708H67.374ZM70.9609 53.9708H78.6609V55.0708H69.7949V39.6708H78.5509V40.7708H70.9609V46.7548H78.0009V47.8548H70.9609V53.9708ZM88.5459 55.3128C83.8599 55.3128 80.5379 51.7708 80.5379 47.3708C80.5379 42.9708 83.8599 39.4288 88.5459 39.4288C91.3839 39.4288 93.8699 40.8808 95.1459 43.1248L94.1119 43.7188C93.0999 41.8268 90.9659 40.5508 88.5459 40.5508C84.4979 40.5508 81.7039 43.5868 81.7039 47.3708C81.7039 51.1548 84.4979 54.1908 88.5459 54.1908C90.9879 54.1908 93.1439 52.8928 94.1559 50.9568L95.1899 51.5508C93.9359 53.8168 91.4279 55.3128 88.5459 55.3128ZM108.059 39.6708H109.225V55.0708H108.059V47.7008H99.1054V55.0708H97.9394V39.6708H99.1054V46.6008H108.059V39.6708ZM123.163 39.6708H124.329V55.0708H123.295L114.209 41.8268V55.0708H113.043V39.6708H114.055L123.163 52.9148V39.6708ZM135.208 55.3128C130.764 55.3128 127.266 51.7708 127.266 47.3708C127.266 42.9708 130.764 39.4288 135.208 39.4288C139.652 39.4288 143.15 42.9708 143.15 47.3708C143.15 51.7708 139.652 55.3128 135.208 55.3128ZM135.208 54.1908C139.014 54.1908 141.984 51.1548 141.984 47.3708C141.984 43.5868 139.014 40.5508 135.208 40.5508C131.402 40.5508 128.432 43.5868 128.432 47.3708C128.432 51.1548 131.402 54.1908 135.208 54.1908ZM147.273 53.9708H154.533V55.0708H146.107V39.6708H147.273V53.9708ZM162.923 55.3128C158.479 55.3128 154.981 51.7708 154.981 47.3708C154.981 42.9708 158.479 39.4288 162.923 39.4288C167.367 39.4288 170.865 42.9708 170.865 47.3708C170.865 51.7708 167.367 55.3128 162.923 55.3128ZM162.923 54.1908C166.729 54.1908 169.699 51.1548 169.699 47.3708C169.699 43.5868 166.729 40.5508 162.923 40.5508C159.117 40.5508 156.147 43.5868 156.147 47.3708C156.147 51.1548 159.117 54.1908 162.923 54.1908ZM188.474 47.8988V48.4928C188.474 52.2108 185.636 55.3128 181.038 55.3128C176.264 55.3128 172.942 51.7708 172.942 47.3708C172.942 42.9708 176.264 39.4288 180.95 39.4288C183.81 39.4288 186.296 40.9248 187.572 43.1468L186.538 43.7628C185.526 41.8268 183.37 40.5508 180.95 40.5508C176.902 40.5508 174.108 43.5868 174.108 47.3708C174.108 51.1548 176.902 54.1908 181.038 54.1908C184.778 54.1908 187.044 51.8808 187.286 48.9988H180.752V47.8988H188.474ZM191.396 39.6708H192.562V55.0708H191.396V39.6708ZM197.547 53.9708H205.247V55.0708H196.381V39.6708H205.137V40.7708H197.547V46.7548H204.587V47.8548H197.547V53.9708ZM212.819 55.3128C209.937 55.3128 207.891 53.8608 207.187 51.6828L208.199 51.0888C208.727 52.9368 210.289 54.1908 212.819 54.1908C215.393 54.1908 216.691 52.8708 216.691 51.1108C216.691 49.2628 215.063 48.5588 212.709 47.8108C210.135 46.9748 207.825 46.2488 207.825 43.5648C207.825 41.0348 209.871 39.4288 212.489 39.4288C215.019 39.4288 216.691 40.8808 217.439 42.6628L216.449 43.2128C215.877 41.8268 214.689 40.5508 212.489 40.5508C210.355 40.5508 209.013 41.8048 209.013 43.5208C209.013 45.3688 210.575 45.9408 212.775 46.6668C215.503 47.5688 217.879 48.4268 217.879 51.0888C217.879 53.6408 215.877 55.3128 212.819 55.3128Z" fill="white"/>
<g clip-path="url(#clip0_219_203)">
<path fill-rule="evenodd" clip-rule="evenodd" d="M24.4721 39.0884L0 57.0709H18.1615L24.4721 39.0884Z" fill="#F89E37"/>
<path fill-rule="evenodd" clip-rule="evenodd" d="M42.5736 49.9629L38.8851 57.0708H57.0001L42.5736 49.9629Z" fill="#0072CF"/>
<path fill-rule="evenodd" clip-rule="evenodd" d="M46.7846 41.8459L42.5735 49.9629L56.9999 57.0707L46.7846 41.8459Z" fill="#00ADF8"/>
<path fill-rule="evenodd" clip-rule="evenodd" d="M38.8851 30.071V48.1444L42.5736 49.963L46.7847 41.8461L38.8851 30.071Z" fill="#009DE6"/>
<path fill-rule="evenodd" clip-rule="evenodd" d="M38.8851 48.1443V57.0708L42.5736 49.9629L38.8851 48.1443Z" fill="#174AA7"/>
<path fill-rule="evenodd" clip-rule="evenodd" d="M29.7255 43.6318L38.7664 57.0707H38.8851V48.1442L29.7255 43.6318Z" fill="#1A3687"/>
<path fill-rule="evenodd" clip-rule="evenodd" d="M38.8851 30.071L29.7255 43.632L38.8851 48.1444V30.071Z" fill="#0082D9"/>
<path fill-rule="evenodd" clip-rule="evenodd" d="M24.4721 39.0883L18.1615 57.0708L23.128 49.6876L35.8319 30.7437L24.4721 39.0883Z" fill="#F36D3C"/>
<path fill-rule="evenodd" clip-rule="evenodd" d="M28.1456 28.6288L24.4722 39.0883L35.8319 30.7436L37.58 28.1318L56.4068 0.0708008L28.1456 28.6288Z" fill="#EF343A"/>
<path fill-rule="evenodd" clip-rule="evenodd" d="M28.1456 28.6289L0 57.0709L24.4721 39.0883L28.1456 28.6289Z" fill="#F36D3C"/>
<path fill-rule="evenodd" clip-rule="evenodd" d="M38.1732 0.0708008L0 57.0708L28.1456 28.6288L38.1732 0.0708008Z" fill="#EF343A"/>
<path fill-rule="evenodd" clip-rule="evenodd" d="M38.1733 0.0708008L28.1456 28.6288L56.4068 0.0708008H38.1733Z" fill="#D52D33"/>
<path fill-rule="evenodd" clip-rule="evenodd" d="M18.4092 12.901L18.0503 26.2015L27.1874 12.6748L18.4092 12.901Z" fill="#8EC853"/>
<path fill-rule="evenodd" clip-rule="evenodd" d="M18.5234 8.58203L18.4093 12.9009L27.1874 12.6747L18.5234 8.58203Z" fill="#3CC050"/>
<path fill-rule="evenodd" clip-rule="evenodd" d="M18.7547 0.0708008L18.5234 8.5821L27.1874 12.6748L18.7547 0.0708008Z" fill="#00BB5A"/>
<path fill-rule="evenodd" clip-rule="evenodd" d="M18.7548 0.0708008H0.518188L18.5235 8.58211L18.7548 0.0708008Z" fill="#00A64D"/>
<path fill-rule="evenodd" clip-rule="evenodd" d="M0.518188 0.0708008L9.2858 13.1362L18.4093 12.901L18.5235 8.58211L0.518188 0.0708008Z" fill="#AED448"/>
<path fill-rule="evenodd" clip-rule="evenodd" d="M9.28577 13.136L18.0504 26.2014L18.4093 12.9009L9.28577 13.136Z" fill="#D9E137"/>
</g>
<defs>
<clipPath id="clip0_219_203">
<rect width="57" height="57" fill="white" transform="translate(0 0.0708008)"/>
</clipPath>
</defs>
</svg>
